<?xml version="1.0" encoding="UTF-8"?>
<svg width="200" height="280" viewBox="0 0 200 280" xmlns="http://www.w3.org/2000/svg">


  <!-- Иконка Markdown -->
  <g transform="translate(50, 80)">
    <!-- Документ -->
    <rect x="0" y="0" width="100" height="120" fill="#f5f5f5" rx="4" stroke="#666" stroke-width="2"/>
    
    <!-- Уголок документа -->
    <polygon points="70,0 100,0 100,30 70,0" fill="#e0e0e0" stroke="#666" stroke-width="1"/>
    
    <!-- Заголовок Markdown -->
    <rect x="15" y="15" width="70" height="4" fill="#333" rx="2"/>
    
    <!-- Символы Markdown -->
    <!-- # -->
    <text x="20" y="30" fill="#333" font-family="Arial, sans-serif" font-size="12" font-weight="bold">#</text>
    <rect x="25" y="25" width="60" height="2" fill="#333" rx="1"/>
    
    <!-- ## -->
    <text x="20" y="40" fill="#333" font-family="Arial, sans-serif" font-size="10" font-weight="bold">##</text>
    <rect x="30" y="35" width="55" height="2" fill="#333" rx="1"/>
    
    <!-- Обычный текст -->
    <rect x="15" y="45" width="70" height="2" fill="#333" rx="1"/>
    <rect x="15" y="50" width="60" height="2" fill="#333" rx="1"/>
    
    <!-- **жирный** -->
    <text x="15" y="60" fill="#333" font-family="Arial, sans-serif" font-size="10" font-weight="bold">**</text>
    <rect x="25" y="55" width="40" height="2" fill="#e74c3c" rx="1"/>
    <text x="70" y="60" fill="#333" font-family="Arial, sans-serif" font-size="10" font-weight="bold">**</text>
    
    <!-- *курсив* -->
    <text x="15" y="70" fill="#333" font-family="Arial, sans-serif" font-size="10" font-weight="bold">*</text>
    <rect x="20" y="65" width="35" height="2" fill="#9b59b6" rx="1"/>
    <text x="60" y="70" fill="#333" font-family="Arial, sans-serif" font-size="10" font-weight="bold">*</text>
    
    <!-- Обычный текст -->
    <rect x="15" y="75" width="70" height="2" fill="#333" rx="1"/>
    <rect x="15" y="80" width="55" height="2" fill="#333" rx="1"/>
    
    <!-- Ссылка -->
    <text x="15" y="90" fill="#333" font-family="Arial, sans-serif" font-size="10" font-weight="bold">[</text>
    <rect x="20" y="85" width="30" height="2" fill="#3498db" rx="1"/>
    <text x="55" y="90" fill="#333" font-family="Arial, sans-serif" font-size="10" font-weight="bold">]</text>
    
    <!-- Обычный текст -->
    <rect x="15" y="95" width="70" height="2" fill="#333" rx="1"/>
    <rect x="15" y="100" width="60" height="2" fill="#333" rx="1"/>
    <rect x="15" y="105" width="50" height="2" fill="#333" rx="1"/>
    
    <!-- Иконка MD -->
    <text x="50" y="115" text-anchor="middle" fill="#666" font-family="Arial, sans-serif" font-size="12" font-weight="bold">
      MD
    </text>
  </g>
  
  <!-- Текст -->
  <text x="100" y="220" text-anchor="middle" fill="#ffffff" font-family="Arial, sans-serif" font-size="14" font-weight="bold">
    Markdown
  </text>
  
  <text x="100" y="240" text-anchor="middle" fill="#cccccc" font-family="Arial, sans-serif" font-size="12">
    .md файл
  </text>
  
  <!-- Декоративные элементы -->
  <circle cx="30" cy="30" r="3" fill="#3498db" opacity="0.6"/>
  <circle cx="170" cy="50" r="2" fill="#e74c3c" opacity="0.4"/>
  <circle cx="40" cy="250" r="2" fill="#9b59b6" opacity="0.5"/>
</svg>
