<?xml version="1.0" encoding="UTF-8"?>
<svg width="200" height="280" viewBox="0 0 200 280" xmlns="http://www.w3.org/2000/svg">

  <!-- Иконка XML -->
  <g transform="translate(50, 80)">
    <!-- Документ -->
    <rect x="0" y="0" width="100" height="120" fill="#f5f5f5" rx="4" stroke="#666" stroke-width="2"/>
    
    <!-- Уголок документа -->
    <polygon points="70,0 100,0 100,30 70,0" fill="#e0e0e0" stroke="#666" stroke-width="1"/>
    
    <!-- XML теги -->
    <!-- Открывающий тег -->
    <text x="10" y="20" fill="#e74c3c" font-family="Consolas, monospace" font-size="8" font-weight="bold">&lt;</text>
    <text x="15" y="20" fill="#333" font-family="Consolas, monospace" font-size="8" font-weight="bold">book</text>
    <text x="33" y="20" fill="#e74c3c" font-family="Consolas, monospace" font-size="8" font-weight="bold">&gt;</text>
    
    <!-- Вложенный тег -->
    <text x="10" y="35" fill="#e74c3c" font-family="Consolas, monospace" font-size="7" font-weight="bold">&lt;</text>
    <text x="14" y="35" fill="#333" font-family="Consolas, monospace" font-size="6" font-weight="bold">title</text>
    <text x="30" y="35" fill="#e74c3c" font-family="Consolas, monospace" font-size="7" font-weight="bold">&gt;</text>
    <text x="35" y="35" fill="#333" font-family="Consolas, monospace" font-size="7">title</text>
    <text x="55" y="35" fill="#e74c3c" font-family="Consolas, monospace" font-size="7" font-weight="bold">&lt;/</text>
    <text x="62" y="35" fill="#333" font-family="Consolas, monospace" font-size="6" font-weight="bold">title</text>
    <text x="79" y="35" fill="#e74c3c" font-family="Consolas, monospace" font-size="7" font-weight="bold">&gt;</text>
    
    <!-- Еще теги -->
    <text x="10" y="50" fill="#e74c3c" font-family="Consolas, monospace" font-size="7" font-weight="bold">&lt;</text>
    <text x="14" y="50" fill="#333" font-family="Consolas, monospace" font-size="6" font-weight="bold">author</text>
    <text x="33" y="50" fill="#e74c3c" font-family="Consolas, monospace" font-size="7" font-weight="bold">&gt;</text>
    <text x="38" y="50" fill="#333" font-family="Consolas, monospace" font-size="7">author</text>
    <text x="62" y="50" fill="#e74c3c" font-family="Consolas, monospace" font-size="7" font-weight="bold">&lt;/</text>
    <text x="69" y="50" fill="#333" font-family="Consolas, monospace" font-size="6" font-weight="bold">author</text>
    <text x="89" y="50" fill="#e74c3c" font-family="Consolas, monospace" font-size="7" font-weight="bold">&gt;</text>
    
    <!-- Закрывающий тег -->
    <text x="10" y="65" fill="#e74c3c" font-family="Consolas, monospace" font-size="8" font-weight="bold">&lt;/</text>
    <text x="19" y="65" fill="#333" font-family="Consolas, monospace" font-size="8" font-weight="bold">book</text>
    <text x="37" y="65" fill="#e74c3c" font-family="Consolas, monospace" font-size="8" font-weight="bold">&gt;</text>
    
    <!-- Дополнительные элементы -->
    <rect x="15" y="75" width="70" height="1" fill="#ddd" rx="0.5"/>
    <rect x="15" y="80" width="60" height="1" fill="#ddd" rx="0.5"/>
    <rect x="15" y="85" width="65" height="1" fill="#ddd" rx="0.5"/>
    <rect x="15" y="90" width="55" height="1" fill="#ddd" rx="0.5"/>
    <rect x="15" y="95" width="70" height="1" fill="#ddd" rx="0.5"/>
    <rect x="15" y="100" width="50" height="1" fill="#ddd" rx="0.5"/>
    
    <!-- Иконка XML -->
    <text x="50" y="115" text-anchor="middle" fill="#666" font-family="Arial, sans-serif" font-size="12" font-weight="bold">
      XML
    </text>
  </g>


</svg>
