<?xml version="1.0" encoding="UTF-8"?>
<svg width="200" height="280" viewBox="0 0 200 280" xmlns="http://www.w3.org/2000/svg">
  <!-- Фон -->
  <rect width="200" height="280" fill="#2a2a2a" rx="8"/>
  
  <!-- Градиент для фона -->
  <defs>
    <linearGradient id="fb2Gradient" x1="0%" y1="0%" x2="100%" y2="100%">
      <stop offset="0%" style="stop-color:#4a4a4a;stop-opacity:1" />
      <stop offset="100%" style="stop-color:#2a2a2a;stop-opacity:1" />
    </linearGradient>
  </defs>
  
  <!-- Фон с градиентом -->
  <rect width="200" height="280" fill="url(#fb2Gradient)" rx="8"/>
  
  <!-- Иконка FictionBook -->
  <g transform="translate(50, 80)">
    <!-- Книга -->
    <rect x="0" y="0" width="100" height="120" fill="#4a4a4a" rx="4" stroke="#666" stroke-width="2"/>
    
    <!-- Страницы -->
    <rect x="5" y="5" width="90" height="110" fill="#f5f5f5" rx="2"/>
    
    <!-- Логотип FB2 -->
    <rect x="25" y="25" width="50" height="30" fill="#3498db" rx="3"/>
    <text x="50" y="45" text-anchor="middle" fill="#ffffff" font-family="Arial, sans-serif" font-size="16" font-weight="bold">
      FB2
    </text>
    
    <!-- Линии текста -->
    <rect x="15" y="70" width="70" height="3" fill="#ddd" rx="1"/>
    <rect x="15" y="80" width="60" height="3" fill="#ddd" rx="1"/>
    <rect x="15" y="90" width="65" height="3" fill="#ddd" rx="1"/>
    <rect x="15" y="100" width="55" height="3" fill="#ddd" rx="1"/>
    
    <!-- Закладка -->
    <rect x="85" y="10" width="8" height="20" fill="#e74c3c" rx="1"/>
  </g>
  
  <!-- Текст -->
  <text x="100" y="220" text-anchor="middle" fill="#ffffff" font-family="Arial, sans-serif" font-size="14" font-weight="bold">
    FictionBook
  </text>
  
  <text x="100" y="240" text-anchor="middle" fill="#cccccc" font-family="Arial, sans-serif" font-size="12">
    .fb2 файл
  </text>
  
  <!-- Декоративные элементы -->
  <circle cx="30" cy="30" r="3" fill="#3498db" opacity="0.6"/>
  <circle cx="170" cy="50" r="2" fill="#3498db" opacity="0.4"/>
  <circle cx="40" cy="250" r="2" fill="#3498db" opacity="0.5"/>
</svg>
